<svg width="25" height="25" viewBox="0 0 25 25" fill="none" xmlns="http://www.w3.org/2000/svg">
<g clip-path="url(#clip0_1627_191)">
<path d="M14.615 14.62C14.3403 14.9148 14.0091 15.1512 13.6411 15.3151C13.2732 15.4791 12.8759 15.5673 12.4731 15.5744C12.0703 15.5815 11.6702 15.5074 11.2966 15.3565C10.9231 15.2056 10.5837 14.9811 10.2988 14.6962C10.014 14.4113 9.78939 14.072 9.6385 13.6984C9.48762 13.3249 9.41352 12.9247 9.42063 12.5219C9.42774 12.1191 9.5159 11.7219 9.67987 11.3539C9.84384 10.9859 10.0802 10.6547 10.375 10.38M18.435 18.44C16.7256 19.743 14.6441 20.4649 12.495 20.5C5.495 20.5 1.495 12.5 1.495 12.5C2.73889 10.1819 4.46413 8.15663 6.555 6.56003L18.435 18.44ZM10.395 4.74002C11.0833 4.5789 11.7881 4.49836 12.495 4.50003C19.495 4.50003 23.495 12.5 23.495 12.5C22.888 13.6356 22.1641 14.7048 21.335 15.69L10.395 4.74002Z" stroke="black" stroke-width="2" stroke-linecap="round" stroke-linejoin="round"/>
<path d="M1.495 1.5L23.495 23.5" stroke="black" stroke-width="2" stroke-linecap="round" stroke-linejoin="round"/>
</g>
<defs>
<clipPath id="clip0_1627_191">
<rect width="24" height="24" fill="white" transform="translate(0.494995 0.5)"/>
</clipPath>
</defs>
</svg>
