<svg class="svg-icon" style="width: 1em; height: 1em;vertical-align: middle;fill: currentColor;overflow: hidden;" viewBox="0 0 1024 1024" version="1.1" xmlns="http://www.w3.org/2000/svg"><path d="M612.1 297.3h-200c-15.4 0-27.9-12.5-27.9-27.9v-49.8c0-15.4 12.5-27.9 27.9-27.9h200c15.4 0 27.9 12.5 27.9 27.9v49.8c0 15.4-12.5 27.9-27.9 27.9z m-200-85.6c-4.4 0-7.9 3.6-7.9 7.9v49.8c0 4.4 3.6 7.9 7.9 7.9h200c4.4 0 7.9-3.6 7.9-7.9v-49.8c0-4.4-3.6-7.9-7.9-7.9h-200z"  /><path d="M725.3 831.6H298.9c-23.5 0-42.7-19.5-42.7-43.4V257.3c0-24 19.1-43.4 42.7-43.4h90.3c5.5 0 10 4.5 10 10s-4.5 10-10 10h-90.3c-12.5 0-22.7 10.5-22.7 23.4v530.9c0 12.9 10.2 23.4 22.7 23.4h426.5c12.5 0 22.7-10.5 22.7-23.4V257.3c0-12.9-10.2-23.4-22.7-23.4H635c-5.5 0-10-4.5-10-10s4.5-10 10-10h90.3c23.5 0 42.7 19.5 42.7 43.4v530.9c0 23.9-19.1 43.4-42.7 43.4z"  /><path d="M683.6 767.8H340.7c-11.3 0-20.4-9.2-20.4-20.4v-407c0-11.3 9.2-20.4 20.4-20.4h342.9c11.3 0 20.4 9.2 20.4 20.4v406.9c0 11.3-9.2 20.5-20.4 20.5zM340.7 335c-3 0-5.4 2.4-5.4 5.4v406.9c0 3 2.4 5.4 5.4 5.4h342.9c3 0 5.4-2.4 5.4-5.4V340.4c0-3-2.4-5.4-5.4-5.4H340.7z"  /><path d="M512.1 403.1c-4.7 0-8.5-3.8-8.5-8.5V356c0-4.7 3.8-8.5 8.5-8.5s8.5 3.8 8.5 8.5v38.6c0 4.7-3.8 8.5-8.5 8.5z"  /><path d="M531.4 383.8h-38.6c-4.7 0-8.5-3.8-8.5-8.5s3.8-8.5 8.5-8.5h38.6c4.7 0 8.5 3.8 8.5 8.5s-3.8 8.5-8.5 8.5zM477.8 448.3h-53.5c-4.1 0-7.5-3.4-7.5-7.5s3.4-7.5 7.5-7.5h53.5c4.1 0 7.5 3.4 7.5 7.5s-3.4 7.5-7.5 7.5zM600.1 448.1h-87.9c-4.1 0-7.5-3.4-7.5-7.5s3.4-7.5 7.5-7.5h87.9c4.1 0 7.5 3.4 7.5 7.5s-3.3 7.5-7.5 7.5zM602.9 512.3l-181.4-0.3c-2.8 0-5-2.2-5-5s2.2-5 5-5l181.4 0.2c2.8 0 5 2.2 5 5s-2.3 5.1-5 5.1zM602.6 576.1l-181.1-0.1c-2.8 0-5-2.2-5-5s2.2-5 5-5l181.1 0.1c2.8 0 5 2.2 5 5s-2.2 5-5 5zM602.5 639.9l-181-0.1c-2.8 0-5-2.2-5-5s2.2-5 5-5l181 0.1c2.8 0 5 2.2 5 5 0 2.7-2.2 5-5 5zM421.9 704c-2.8 0-5-2.2-5-5s2.2-5 5-5l180.9-0.1c2.8 0 5 2.2 5 5s-2.2 5-5 5l-180.9 0.1z"  /></svg>